<svg width="1024" height="500" viewBox="0 0 1024 500" fill="none" xmlns="http://www.w3.org/2000/svg">
<rect width="1024" height="500" fill="white"/>
<path fill-rule="evenodd" clip-rule="evenodd" d="M315.492 244.549C315.492 251.935 321.492 257.908 328.883 257.908C336.241 257.908 342.207 251.935 342.207 244.549C342.207 237.185 336.241 231.207 328.883 231.207C321.492 231.207 315.492 237.185 315.492 244.549Z" fill="url(#paint0_linear)"/>
<path fill-rule="evenodd" clip-rule="evenodd" d="M316.469 282.058C316.469 288.899 322.023 294.432 328.881 294.432C335.672 294.432 341.221 288.899 341.221 282.058C341.221 275.222 335.672 269.65 328.881 269.65C322.023 269.65 316.469 275.222 316.469 282.058Z" fill="#F65751"/>
<path fill-rule="evenodd" clip-rule="evenodd" d="M317.447 319.532C317.447 325.834 322.556 330.927 328.886 330.927C335.149 330.927 340.247 325.834 340.247 319.532C340.247 313.213 335.149 308.115 328.886 308.115C322.556 308.115 317.447 313.213 317.447 319.532Z" fill="#F75944"/>
<path fill-rule="evenodd" clip-rule="evenodd" d="M318.43 357.017C318.43 362.775 323.093 367.449 328.884 367.449C334.597 367.449 339.294 362.775 339.294 357.017C339.294 351.22 334.597 346.572 328.884 346.572C323.093 346.572 318.43 351.22 318.43 357.017Z" fill="#F95C34"/>
<path fill-rule="evenodd" clip-rule="evenodd" d="M319.368 394.517C319.368 399.698 323.625 403.96 328.882 403.96C334.073 403.96 338.324 399.698 338.324 394.517C338.324 389.243 334.073 385.025 328.882 385.025C323.625 385.025 319.368 389.243 319.368 394.517Z" fill="#FB5F24"/>
<path fill-rule="evenodd" clip-rule="evenodd" d="M320.378 431.993C320.378 436.657 324.151 440.474 328.88 440.474C333.543 440.474 337.349 436.657 337.349 431.993C337.349 427.275 333.543 423.469 328.88 423.469C324.151 423.469 320.378 427.275 320.378 431.993Z" fill="#FE6213"/>
<path fill-rule="evenodd" clip-rule="evenodd" d="M321.34 469.482C321.34 473.623 324.722 476.978 328.885 476.978C333.026 476.978 336.358 473.623 336.358 469.482C336.358 465.313 333.026 461.931 328.885 461.931C324.722 461.931 321.34 465.313 321.34 469.482Z" fill="#FF6603"/>
<path fill-rule="evenodd" clip-rule="evenodd" d="M309.644 172.387C304.343 167.602 296.133 168.042 291.348 173.371C286.531 178.69 286.993 186.884 292.316 191.685C297.64 196.47 305.822 196.014 310.623 190.712C315.429 185.388 314.979 177.216 309.644 172.387Z" fill="#F25A7D"/>
<path fill-rule="evenodd" clip-rule="evenodd" d="M280.896 148.38C276.15 144.051 268.819 144.458 264.497 149.238C260.252 153.978 260.598 161.315 265.366 165.599C270.112 169.911 277.453 169.532 281.754 164.769C286.032 159.973 285.691 152.653 280.896 148.38Z" fill="#F14877"/>
<path fill-rule="evenodd" clip-rule="evenodd" d="M252.113 124.318C247.901 120.562 241.401 120.859 237.623 125.105C233.85 129.301 234.191 135.774 238.403 139.569C242.594 143.342 249.066 142.995 252.877 138.843C256.644 134.597 256.314 128.108 252.113 124.318Z" fill="#EF3975"/>
<path fill-rule="evenodd" clip-rule="evenodd" d="M223.311 100.297C219.681 97.0196 214.066 97.2834 210.794 100.946C207.489 104.614 207.786 110.213 211.405 113.502C215.117 116.785 220.731 116.483 224.009 112.853C227.265 109.196 226.995 103.614 223.311 100.297Z" fill="#EB2271"/>
<path fill-rule="evenodd" clip-rule="evenodd" d="M194.544 76.2851C191.481 73.4748 186.685 73.728 183.903 76.8078C181.142 79.9151 181.423 84.6777 184.502 87.466C187.582 90.1993 192.322 89.9682 195.127 86.9269C197.887 83.8141 197.656 79.0624 194.544 76.2851Z" fill="#E91270"/>
<path fill-rule="evenodd" clip-rule="evenodd" d="M338.431 217.748C344.315 212.436 344.794 203.372 339.493 197.493C334.191 191.603 325.162 191.124 319.288 196.426C313.377 201.744 312.915 210.791 318.227 216.665C323.512 222.544 332.553 223.012 338.431 217.748Z" fill="#F898A7"/>
<path fill-rule="evenodd" clip-rule="evenodd" d="M365.628 191.921C371.121 186.971 371.567 178.574 366.651 173.063C361.707 167.591 353.243 167.14 347.783 172.067C342.305 177.023 341.849 185.465 346.782 190.915C351.753 196.409 360.161 196.865 365.628 191.921Z" fill="#F46080"/>
<path fill-rule="evenodd" clip-rule="evenodd" d="M392.843 166.154C397.93 161.535 398.342 153.714 393.761 148.61C389.169 143.562 381.366 143.139 376.268 147.725C371.192 152.312 370.774 160.143 375.366 165.208C379.958 170.268 387.756 170.708 392.843 166.154Z" fill="#F1517E"/>
<path fill-rule="evenodd" clip-rule="evenodd" d="M420.034 140.309C424.72 136.096 425.105 128.881 420.881 124.233C416.658 119.52 409.459 119.141 404.785 123.364C400.083 127.582 399.748 134.787 403.916 139.473C408.139 144.137 415.354 144.533 420.034 140.309Z" fill="#F0437C"/>
<path fill-rule="evenodd" clip-rule="evenodd" d="M447.25 114.516C451.534 110.644 451.864 104.077 448.042 99.782C444.17 95.4813 437.549 95.1624 433.276 98.9901C428.998 102.851 428.635 109.456 432.512 113.74C436.356 118.024 442.95 118.376 447.25 114.516Z" fill="#ED357C"/>
<path fill-rule="evenodd" clip-rule="evenodd" d="M474.481 88.7247C478.313 85.2269 478.655 79.2322 475.135 75.3659C471.632 71.4446 465.66 71.1585 461.788 74.6288C457.911 78.1705 457.57 84.1268 461.068 88.0151C464.571 91.9033 470.571 92.217 474.481 88.7247Z" fill="#EB257C"/>
<path fill-rule="evenodd" clip-rule="evenodd" d="M501.647 62.8772C505.117 59.7754 505.42 54.3969 502.263 50.9101C499.118 47.4673 493.762 47.1591 490.275 50.2609C486.794 53.4012 486.53 58.8075 489.654 62.2888C492.783 65.7646 498.172 66.056 501.647 62.8772Z" fill="#E8177D"/>
<path fill-rule="evenodd" clip-rule="evenodd" d="M528.868 37.0913C531.959 34.3195 532.201 29.5786 529.435 26.5153C526.625 23.397 521.884 23.1497 518.788 25.9325C515.698 28.7209 515.45 33.4778 518.238 36.5412C521.016 39.6375 525.772 39.8962 528.868 37.0913Z" fill="#E6077E"/>
<path fill-rule="evenodd" clip-rule="evenodd" d="M348.39 265.807C348.39 272.945 354.18 278.753 361.34 278.753C368.5 278.753 374.28 272.945 374.28 265.807C374.28 258.608 368.5 252.839 361.34 252.839C354.18 252.839 348.39 258.608 348.39 265.807Z" fill="url(#paint1_linear)"/>
<path fill-rule="evenodd" clip-rule="evenodd" d="M349.722 303.242C349.722 309.666 354.918 314.841 361.341 314.841C367.704 314.841 372.945 309.666 372.945 303.242C372.945 296.83 367.704 291.649 361.341 291.649C354.918 291.649 349.722 296.83 349.722 303.242Z" fill="url(#paint2_linear)"/>
<path fill-rule="evenodd" clip-rule="evenodd" d="M351.102 340.701C351.102 346.344 355.699 350.953 361.341 350.953C366.994 350.953 371.581 346.344 371.581 340.701C371.581 335.048 366.994 330.478 361.341 330.478C355.699 330.478 351.102 335.048 351.102 340.701Z" fill="url(#paint3_linear)"/>
<path fill-rule="evenodd" clip-rule="evenodd" d="M352.478 378.148C352.478 383.076 356.426 387.058 361.342 387.058C366.237 387.058 370.234 383.076 370.234 378.148C370.234 373.248 366.237 369.272 361.342 369.272C356.426 369.272 352.478 373.248 352.478 378.148Z" fill="url(#paint4_linear)"/>
<path fill-rule="evenodd" clip-rule="evenodd" d="M353.813 415.622C353.813 419.774 357.206 423.107 361.342 423.107C365.521 423.107 368.87 419.774 368.87 415.622C368.87 411.442 365.521 408.087 361.342 408.087C357.206 408.087 353.813 411.442 353.813 415.622Z" fill="url(#paint5_linear)"/>
<path fill-rule="evenodd" clip-rule="evenodd" d="M283.403 265.807C283.403 272.945 289.2 278.753 296.382 278.753C303.52 278.753 309.354 272.945 309.354 265.807C309.354 258.608 303.52 252.839 296.382 252.839C289.2 252.839 283.403 258.608 283.403 265.807Z" fill="url(#paint6_linear)"/>
<path fill-rule="evenodd" clip-rule="evenodd" d="M284.766 303.242C284.766 309.666 289.973 314.841 296.38 314.841C302.787 314.841 307.989 309.666 307.989 303.242C307.989 296.83 302.787 291.649 296.38 291.649C289.973 291.649 284.766 296.83 284.766 303.242Z" fill="url(#paint7_linear)"/>
<path fill-rule="evenodd" clip-rule="evenodd" d="M286.146 340.701C286.146 346.344 290.716 350.953 296.38 350.953C302.017 350.953 306.614 346.344 306.614 340.701C306.614 335.048 302.017 330.478 296.38 330.478C290.716 330.478 286.146 335.048 286.146 340.701Z" fill="url(#paint8_linear)"/>
<path fill-rule="evenodd" clip-rule="evenodd" d="M287.472 378.148C287.472 383.076 291.464 387.058 296.38 387.058C301.286 387.058 305.267 383.076 305.267 378.148C305.267 373.248 301.286 369.272 296.38 369.272C291.464 369.272 287.472 373.248 287.472 378.148Z" fill="url(#paint9_linear)"/>
<path fill-rule="evenodd" clip-rule="evenodd" d="M288.859 415.622C288.859 419.774 292.219 423.107 296.382 423.107C300.54 423.107 303.894 419.774 303.894 415.622C303.894 411.442 300.54 408.087 296.382 408.087C292.219 408.087 288.859 411.442 288.859 415.622Z" fill="url(#paint10_linear)"/>
<path fill-rule="evenodd" clip-rule="evenodd" d="M308.529 125.964C303.492 121.592 295.859 122.131 291.487 127.174C287.137 132.195 287.66 139.812 292.697 144.179C297.701 148.551 305.334 148.012 309.706 142.98C314.078 137.948 313.517 130.353 308.529 125.964Z" fill="url(#paint11_linear)"/>
<path fill-rule="evenodd" clip-rule="evenodd" d="M278.76 103.177C274.685 99.6457 268.493 100.047 264.924 104.111C261.41 108.203 261.812 114.412 265.914 117.96C270 121.507 276.17 121.056 279.723 116.964C283.292 112.9 282.835 106.685 278.76 103.177Z" fill="url(#paint12_linear)"/>
<path fill-rule="evenodd" clip-rule="evenodd" d="M249.019 80.3353C245.89 77.6294 241.1 77.9486 238.406 81.0889C235.667 84.2072 236.002 88.9589 239.137 91.7142C242.272 94.4366 247.051 94.112 249.756 90.9607C252.484 87.8148 252.154 83.0686 249.019 80.3353Z" fill="url(#paint13_linear)"/>
<path fill-rule="evenodd" clip-rule="evenodd" d="M371.222 237.399C376.869 231.899 377.04 222.842 371.562 217.116C366.074 211.452 356.995 211.265 351.342 216.792C345.617 222.258 345.436 231.322 350.951 237.014C356.456 242.712 365.519 242.877 371.222 237.399Z" fill="url(#paint14_linear)"/>
<path fill-rule="evenodd" clip-rule="evenodd" d="M397.181 210.362C402.345 205.412 402.51 197.195 397.539 192.042C392.534 186.917 384.346 186.752 379.199 191.756C374.04 196.711 373.908 204.934 378.869 210.109C383.84 215.229 392.062 215.389 397.181 210.362Z" fill="url(#paint15_linear)"/>
<path fill-rule="evenodd" clip-rule="evenodd" d="M423.189 183.406C427.798 178.918 427.93 171.587 423.486 166.962C419.038 162.391 411.707 162.227 407.077 166.72C402.463 171.142 402.336 178.489 406.796 183.098C411.273 187.718 418.576 187.855 423.189 183.406Z" fill="url(#paint16_linear)"/>
<path fill-rule="evenodd" clip-rule="evenodd" d="M449.189 156.406C453.281 152.446 453.363 145.968 449.459 141.914C445.51 137.823 439.027 137.712 434.963 141.65C430.893 145.566 430.783 152.067 434.737 156.12C438.631 160.19 445.12 160.311 449.189 156.406Z" fill="url(#paint17_linear)"/>
<path fill-rule="evenodd" clip-rule="evenodd" d="M475.221 129.384C478.724 125.968 478.812 120.353 475.391 116.828C472.004 113.302 466.367 113.203 462.848 116.602C459.317 120.012 459.213 125.66 462.628 129.169C466.065 132.722 471.679 132.821 475.221 129.384Z" fill="url(#paint18_linear)"/>
<path fill-rule="evenodd" clip-rule="evenodd" d="M501.156 102.385C504.186 99.4865 504.269 94.7624 501.387 91.7541C498.484 88.7623 493.738 88.6689 490.746 91.5617C487.727 94.4656 487.683 99.2008 490.532 102.187C493.435 105.195 498.209 105.272 501.156 102.385Z" fill="url(#paint19_linear)"/>
<path fill-rule="evenodd" clip-rule="evenodd" d="M286.426 237.399C280.729 231.899 280.581 222.841 286.096 217.111C291.557 211.452 300.636 211.265 306.339 216.792C311.998 222.259 312.185 231.322 306.675 237.014C301.181 242.712 292.113 242.877 286.426 237.399Z" fill="url(#paint20_linear)"/>
<path fill-rule="evenodd" clip-rule="evenodd" d="M261.08 209.712C256.274 205.108 256.153 197.497 260.772 192.69C265.419 187.884 273.019 187.79 277.776 192.399C282.576 197.024 282.769 204.652 278.106 209.431C273.453 214.238 265.842 214.37 261.08 209.712Z" fill="url(#paint21_linear)"/>
<path fill-rule="evenodd" clip-rule="evenodd" d="M235.684 182.101C231.802 178.334 231.692 172.136 235.42 168.236C239.22 164.381 245.363 164.254 249.267 168.005C253.188 171.745 253.304 177.959 249.542 181.864C245.759 185.758 239.616 185.852 235.684 182.101Z" fill="url(#paint22_linear)"/>
<path fill-rule="evenodd" clip-rule="evenodd" d="M210.32 154.439C207.339 151.601 207.229 146.817 210.133 143.836C213.031 140.844 217.793 140.74 220.752 143.621C223.755 146.514 223.859 151.271 220.955 154.263C218.063 157.261 213.328 157.354 210.32 154.439Z" fill="url(#paint23_linear)"/>
<path fill-rule="evenodd" clip-rule="evenodd" d="M338.626 170.095C344.417 164.684 344.725 155.631 339.33 149.824C333.93 144.054 324.878 143.719 319.087 149.13C313.308 154.526 313 163.589 318.373 169.353C323.778 175.166 332.825 175.463 338.626 170.095Z" fill="#ED225B"/>
<path fill-rule="evenodd" clip-rule="evenodd" d="M365.089 143.538C370.318 138.693 370.593 130.438 365.699 125.224C360.849 119.988 352.622 119.697 347.386 124.58C342.173 129.459 341.887 137.67 346.76 142.878C351.643 148.136 359.842 148.405 365.089 143.538Z" fill="url(#paint24_linear)"/>
<path fill-rule="evenodd" clip-rule="evenodd" d="M391.583 116.978C396.241 112.628 396.521 105.269 392.122 100.6C387.75 95.9035 380.436 95.634 375.729 100.045C371.054 104.384 370.774 111.737 375.14 116.406C379.534 121.098 386.853 121.389 391.583 116.978Z" fill="url(#paint25_linear)"/>
<path fill-rule="evenodd" clip-rule="evenodd" d="M418.015 90.4721C422.151 86.6058 422.365 80.1271 418.538 75.9694C414.65 71.8501 408.188 71.6248 404.042 75.4635C399.907 79.3243 399.676 85.7862 403.563 89.9494C407.402 94.0907 413.885 94.3438 418.015 90.4721Z" fill="url(#paint26_linear)"/>
<path fill-rule="evenodd" clip-rule="evenodd" d="M444.473 63.9076C448.053 60.5638 448.278 54.9596 444.907 51.3628C441.586 47.7716 435.954 47.5682 432.363 50.912C428.75 54.2448 428.58 59.8818 431.934 63.4786C435.278 67.0534 440.904 67.2679 444.473 63.9076Z" fill="url(#paint27_linear)"/>
<path fill-rule="evenodd" clip-rule="evenodd" d="M470.948 37.3937C473.989 34.5449 474.138 29.7545 471.35 26.7297C468.485 23.6939 463.706 23.5236 460.698 26.3779C457.646 29.2157 457.508 33.9507 460.319 37.0141C463.14 40.0499 467.924 40.2205 470.948 37.3937Z" fill="url(#paint28_linear)"/>
<path fill-rule="evenodd" clip-rule="evenodd" d="M421.035 340.453C421.035 299.615 453.124 269.674 496.711 269.674C540.219 269.674 572.308 299.615 572.308 340.453C572.308 381.283 540.219 411.224 496.711 411.224C453.124 411.224 421.035 381.283 421.035 340.453ZM533.437 340.453C533.437 316.928 517.293 301.562 496.711 301.562C476.068 301.562 459.933 316.928 459.933 340.453C459.933 363.974 476.068 379.336 496.711 379.336C517.293 379.336 533.437 363.974 533.437 340.453Z" fill="#260132"/>
<path fill-rule="evenodd" clip-rule="evenodd" d="M588.95 382.907C592.361 375.221 601.258 371.678 609.036 374.854C618.866 378.845 630.024 381.283 640.554 381.283C656.49 381.283 662.724 376.828 662.724 370.2C662.724 348.626 585.349 364.355 585.349 313.831C585.349 289.513 605.165 269.674 645.602 269.674C657.246 269.674 669.196 271.47 679.814 274.899C688.362 277.651 692.636 287.204 689.185 295.491C686.044 303.092 677.465 306.884 669.687 304.105C661.317 301.106 653.185 299.615 645.412 299.615C629.277 299.615 623.428 305.066 623.428 311.902C623.428 332.671 700.635 317.109 700.635 367.288C700.635 391.013 680.805 411.224 640.364 411.224C625.025 411.224 609.784 408.401 597.551 403.72C589.255 400.552 585.331 391.039 588.95 382.907Z" fill="#260132"/>
<path fill-rule="evenodd" clip-rule="evenodd" d="M814.367 365.736C831.285 357.577 841.001 342.781 841.001 322.738C841.001 291.66 817.681 272.395 780.54 272.395H733.431C725.087 272.395 718.317 279.205 718.317 287.532C718.317 295.867 725.087 302.628 733.431 302.628H759.883V302.726H778.186C794.162 302.726 802.121 310.114 802.121 322.738C802.121 335.211 794.162 342.604 778.186 342.604H739.009C727.577 342.604 718.317 351.869 718.317 363.289V389.265C718.317 399.889 726.936 408.508 737.563 408.508C748.203 408.508 756.821 399.889 756.821 389.265V377.146C756.821 374.478 758.976 372.337 761.617 372.337H777.81L798.214 402.234C800.918 406.154 805.342 408.508 810.102 408.508C824.335 408.508 832.754 392.526 824.698 380.792L814.367 365.736Z" fill="#260132"/>
<defs>
<linearGradient id="paint0_linear" x1="328.883" y1="28.8123" x2="328.883" y2="475.845" gradientUnits="userSpaceOnUse">
<stop stop-color="#E6077E"/>
<stop offset="1" stop-color="#FF6801"/>
</linearGradient>
<linearGradient id="paint1_linear" x1="361.34" y1="28.817" x2="361.34" y2="475.843" gradientUnits="userSpaceOnUse">
<stop stop-color="#E6077E"/>
<stop offset="1" stop-color="#FF6801"/>
</linearGradient>
<linearGradient id="paint2_linear" x1="361.342" y1="28.811" x2="361.342" y2="475.846" gradientUnits="userSpaceOnUse">
<stop stop-color="#E6077E"/>
<stop offset="1" stop-color="#FF6801"/>
</linearGradient>
<linearGradient id="paint3_linear" x1="361.341" y1="28.8181" x2="361.341" y2="475.843" gradientUnits="userSpaceOnUse">
<stop stop-color="#E6077E"/>
<stop offset="1" stop-color="#FF6801"/>
</linearGradient>
<linearGradient id="paint4_linear" x1="361.342" y1="28.8152" x2="361.342" y2="475.844" gradientUnits="userSpaceOnUse">
<stop stop-color="#E6077E"/>
<stop offset="1" stop-color="#FF6801"/>
</linearGradient>
<linearGradient id="paint5_linear" x1="361.342" y1="28.8161" x2="361.342" y2="475.843" gradientUnits="userSpaceOnUse">
<stop stop-color="#E6077E"/>
<stop offset="1" stop-color="#FF6801"/>
</linearGradient>
<linearGradient id="paint6_linear" x1="296.382" y1="28.817" x2="296.382" y2="475.843" gradientUnits="userSpaceOnUse">
<stop stop-color="#E6077E"/>
<stop offset="1" stop-color="#FF6801"/>
</linearGradient>
<linearGradient id="paint7_linear" x1="296.38" y1="28.811" x2="296.38" y2="475.846" gradientUnits="userSpaceOnUse">
<stop stop-color="#E6077E"/>
<stop offset="1" stop-color="#FF6801"/>
</linearGradient>
<linearGradient id="paint8_linear" x1="296.38" y1="28.8181" x2="296.38" y2="475.843" gradientUnits="userSpaceOnUse">
<stop stop-color="#E6077E"/>
<stop offset="1" stop-color="#FF6801"/>
</linearGradient>
<linearGradient id="paint9_linear" x1="296.38" y1="28.8152" x2="296.38" y2="475.844" gradientUnits="userSpaceOnUse">
<stop stop-color="#E6077E"/>
<stop offset="1" stop-color="#FF6801"/>
</linearGradient>
<linearGradient id="paint10_linear" x1="296.382" y1="28.8161" x2="296.382" y2="475.843" gradientUnits="userSpaceOnUse">
<stop stop-color="#E6077E"/>
<stop offset="1" stop-color="#FF6801"/>
</linearGradient>
<linearGradient id="paint11_linear" x1="300.577" y1="28.813" x2="300.577" y2="475.84" gradientUnits="userSpaceOnUse">
<stop stop-color="#E6077E"/>
<stop offset="1" stop-color="#FF6801"/>
</linearGradient>
<linearGradient id="paint12_linear" x1="272.337" y1="28.8157" x2="272.337" y2="475.843" gradientUnits="userSpaceOnUse">
<stop stop-color="#E6077E"/>
<stop offset="1" stop-color="#FF6801"/>
</linearGradient>
<linearGradient id="paint13_linear" x1="244.07" y1="28.8143" x2="244.07" y2="475.845" gradientUnits="userSpaceOnUse">
<stop stop-color="#E6077E"/>
<stop offset="1" stop-color="#FF6801"/>
</linearGradient>
<linearGradient id="paint14_linear" x1="361.251" y1="28.8133" x2="361.251" y2="475.843" gradientUnits="userSpaceOnUse">
<stop stop-color="#E6077E"/>
<stop offset="1" stop-color="#FF6801"/>
</linearGradient>
<linearGradient id="paint15_linear" x1="388.217" y1="28.8162" x2="388.217" y2="475.85" gradientUnits="userSpaceOnUse">
<stop stop-color="#E6077E"/>
<stop offset="1" stop-color="#FF6801"/>
</linearGradient>
<linearGradient id="paint16_linear" x1="415.15" y1="28.8157" x2="415.15" y2="475.845" gradientUnits="userSpaceOnUse">
<stop stop-color="#E6077E"/>
<stop offset="1" stop-color="#FF6801"/>
</linearGradient>
<linearGradient id="paint17_linear" x1="442.095" y1="28.8128" x2="442.095" y2="475.845" gradientUnits="userSpaceOnUse">
<stop stop-color="#E6077E"/>
<stop offset="1" stop-color="#FF6801"/>
</linearGradient>
<linearGradient id="paint18_linear" x1="468.996" y1="28.816" x2="468.996" y2="475.848" gradientUnits="userSpaceOnUse">
<stop stop-color="#E6077E"/>
<stop offset="1" stop-color="#FF6801"/>
</linearGradient>
<linearGradient id="paint19_linear" x1="495.965" y1="28.8161" x2="495.965" y2="475.844" gradientUnits="userSpaceOnUse">
<stop stop-color="#E6077E"/>
<stop offset="1" stop-color="#FF6801"/>
</linearGradient>
<linearGradient id="paint20_linear" x1="296.38" y1="28.8129" x2="296.38" y2="475.843" gradientUnits="userSpaceOnUse">
<stop stop-color="#E6077E"/>
<stop offset="1" stop-color="#FF6801"/>
</linearGradient>
<linearGradient id="paint21_linear" x1="269.417" y1="28.8168" x2="269.417" y2="475.846" gradientUnits="userSpaceOnUse">
<stop stop-color="#E6077E"/>
<stop offset="1" stop-color="#FF6801"/>
</linearGradient>
<linearGradient id="paint22_linear" x1="242.509" y1="28.814" x2="242.509" y2="475.844" gradientUnits="userSpaceOnUse">
<stop stop-color="#E6077E"/>
<stop offset="1" stop-color="#FF6801"/>
</linearGradient>
<linearGradient id="paint23_linear" x1="215.528" y1="28.8165" x2="215.528" y2="475.843" gradientUnits="userSpaceOnUse">
<stop stop-color="#E6077E"/>
<stop offset="1" stop-color="#FF6801"/>
</linearGradient>
<linearGradient id="paint24_linear" x1="356.229" y1="28.8142" x2="356.229" y2="475.846" gradientUnits="userSpaceOnUse">
<stop stop-color="#E6077E"/>
<stop offset="1" stop-color="#FF6801"/>
</linearGradient>
<linearGradient id="paint25_linear" x1="383.614" y1="28.8126" x2="383.614" y2="475.845" gradientUnits="userSpaceOnUse">
<stop stop-color="#E6077E"/>
<stop offset="1" stop-color="#FF6801"/>
</linearGradient>
<linearGradient id="paint26_linear" x1="411.009" y1="28.8155" x2="411.009" y2="475.843" gradientUnits="userSpaceOnUse">
<stop stop-color="#E6077E"/>
<stop offset="1" stop-color="#FF6801"/>
</linearGradient>
<linearGradient id="paint27_linear" x1="438.418" y1="28.8144" x2="438.418" y2="475.841" gradientUnits="userSpaceOnUse">
<stop stop-color="#E6077E"/>
<stop offset="1" stop-color="#FF6801"/>
</linearGradient>
<linearGradient id="paint28_linear" x1="465.823" y1="28.8142" x2="465.823" y2="475.843" gradientUnits="userSpaceOnUse">
<stop stop-color="#E6077E"/>
<stop offset="1" stop-color="#FF6801"/>
</linearGradient>
</defs>
</svg>
