<svg width="30" height="30" viewBox="0 0 30 30" fill="none" xmlns="http://www.w3.org/2000/svg">
  <path fill-rule="evenodd" clip-rule="evenodd" d="M9.0778 26.0241C9.07972 26.0301 9.08116 26.0345 9.0901 26.0397L9.14736 26.0598C13.7412 28.4753 19.3515 27.8089 23.2496 24.3847C27.1483 20.9599 28.5249 15.4874 26.7094 10.6296C24.8941 5.77233 20.2644 2.53826 15.0725 2.5001C10.6829 2.48246 6.60693 4.75856 4.32574 8.49993C2.04426 12.2418 1.8911 16.9031 3.92207 20.7862L4.15184 21.2342C4.23969 21.3988 4.25663 21.5765 4.20573 21.7406C3.87755 22.6079 3.5892 23.5444 3.35912 24.496L3.33469 24.701C3.33469 25.6577 3.8452 26.3151 4.85839 26.2927L5.02709 26.2723C5.94747 26.0691 6.85388 25.8073 7.74076 25.4884C7.85832 25.4587 8.05087 25.4702 8.22464 25.5413L9.0778 26.0241ZM4.83741 24.7776C5.64946 24.5926 6.44955 24.3586 7.23327 24.0769L7.30207 24.0521L7.37295 24.0342C7.8499 23.9136 8.37188 23.9808 8.79273 24.153L8.88069 24.189L8.96339 24.2358L9.77382 24.6945L9.84545 24.7321C13.8896 26.8586 18.8286 26.2717 22.2597 23.2577C25.6909 20.2437 26.9016 15.4286 25.3044 11.1548C23.7074 6.8818 19.6341 4.03469 15.0639 4.00008C11.1997 3.98542 7.61329 5.9894 5.60646 9.2808C3.59898 12.5733 3.46427 16.6744 5.25124 20.0911L5.25676 20.1016L5.25671 20.1016L5.48242 20.5416C5.74423 21.0405 5.81178 21.6258 5.63844 22.1848L5.62487 22.2286L5.60865 22.2715C5.31309 23.0525 5.05036 23.8994 4.83787 24.7634L4.83695 24.7711C4.8371 24.7733 4.83725 24.7755 4.83741 24.7776ZM10.5054 25.5637L10.4944 25.5295C10.505 25.5594 10.5085 25.5733 10.5054 25.5637Z" fill="#0B0A0A"/>
</svg>
