<svg width="30" height="30" viewBox="0 0 30 30" fill="none" xmlns="http://www.w3.org/2000/svg">
  <path fill-rule="evenodd" clip-rule="evenodd" d="M14.956 1.75C10.4257 1.75 6.17808 5.03614 5.76176 9.53204L5.76174 9.53204L5.76134 9.53669C5.73508 9.84085 5.71737 10.1496 5.706 10.479L5.70592 10.479L5.70571 10.4894L5.69032 11.2342L5.69022 11.2342L5.69016 11.2463L5.68745 11.8407C5.52635 12.498 5.20192 13.1071 4.74156 13.6118L4.72165 13.6336L4.70352 13.6569L4.61956 13.765L4.60147 13.7882L4.58525 13.8129C4.00996 14.6868 3.67927 15.6986 3.62809 16.7435L3.62725 16.7605L3.62719 16.7776L3.62616 17.0689C3.59841 18.4452 4.07029 19.8019 4.95341 20.8786L4.97036 20.8992L4.98875 20.9186C6.15721 22.1524 7.67798 22.8957 9.31457 23.0543C13.0864 23.4636 16.9022 23.4637 20.6842 23.0534C22.3094 22.9023 23.8361 22.1581 24.9631 20.9621L24.9784 20.9458L24.9927 20.9287C25.8554 19.8967 26.3326 18.6488 26.3734 17.3511L26.3737 17.3403L26.3738 17.3294L26.375 16.8252L26.375 16.808L26.3743 16.7907C26.327 15.7052 25.9947 14.6888 25.4091 13.8137L25.3941 13.7913L25.3775 13.7699L25.3003 13.6709L25.2905 13.6583L25.2801 13.646L25.0991 13.4332C24.7458 12.9896 24.4873 12.4802 24.3389 11.936L24.3022 11.7818L24.2942 11.6127C24.2912 11.5136 24.2896 11.4007 24.289 11.2553L24.289 11.2538L24.2889 10.4149L24.2888 10.4084C24.2858 10.0725 24.2757 9.82369 24.2514 9.54223L24.2515 9.54223L24.2508 9.53535C23.8206 5.0343 19.574 1.75 15.0451 1.75H14.956ZM7.19062 11.992L6.86942 11.9194L7.1871 11.9209L7.19012 11.2591L7.20528 10.5256C7.21588 10.2208 7.23211 9.94043 7.25558 9.66806C7.58976 6.07406 11.0643 3.25 14.956 3.25H15.0451C18.9333 3.25 22.4107 6.07098 22.7573 9.67451C22.7772 9.90617 22.7861 10.1139 22.7889 10.4185L22.7889 10.4218L22.789 11.2566L22.789 11.2591C22.7896 11.4157 22.7914 11.5456 22.7951 11.6654L22.795 11.6654L22.7956 11.6772L22.8071 11.9225L22.8104 11.9926L22.8267 12.061L22.8824 12.2949L22.885 12.3058L22.8879 12.3166C23.0908 13.068 23.4472 13.77 23.9348 14.379L23.9417 14.3876L23.9489 14.3961L24.1269 14.6054L24.1768 14.6695C24.595 15.3028 24.8372 16.0388 24.875 16.8395L24.8738 17.3144C24.8418 18.2585 24.497 19.1755 23.8561 19.9496C22.9793 20.8722 21.7956 21.4448 20.5404 21.5603L20.5404 21.5602L20.5282 21.5615C16.8503 21.9609 13.1396 21.9609 9.47218 21.5626L9.47219 21.5625L9.46302 21.5617C8.19995 21.4402 7.01865 20.8714 6.09643 19.9067C5.44734 19.1055 5.1044 18.1026 5.12596 17.0941L5.12608 17.0941L5.12613 17.0807L5.12712 16.8006C5.16729 16.0391 5.40717 15.3015 5.82266 14.6613L5.87034 14.6C6.53575 13.8624 6.99161 12.9624 7.19062 11.992ZM18.26 24.6132C17.8892 24.3113 17.3469 24.3707 17.0487 24.746C16.9194 24.9087 16.7697 25.0546 16.6032 25.1802C16.0384 25.6232 15.3337 25.8204 14.633 25.737C13.9334 25.6536 13.2974 25.2975 12.8659 24.7492C12.5694 24.3725 12.0274 24.3105 11.6552 24.6106C11.2831 24.9107 11.2218 25.4594 11.5182 25.8361C12.2338 26.7452 13.2822 27.3323 14.4316 27.4692C15.58 27.606 16.7364 27.2824 17.6459 26.5687C17.9159 26.3651 18.1707 26.1167 18.3912 25.8393C18.6894 25.464 18.6307 24.9151 18.26 24.6132Z" fill="#0B0A0A"/>
</svg>
