<svg width="30" height="30" viewBox="0 0 30 30" fill="none" xmlns="http://www.w3.org/2000/svg">
<path d="M20.3793 8.75L24.8317 12.3927C25.5591 12.9878 25.1383 14.1667 24.1985 14.1667H23.6897M20.3793 8.75V8C20.3793 6.34315 19.0362 5 17.3793 5H12.6207C10.9638 5 9.62069 6.34315 9.62069 8V8.75M20.3793 8.75H9.62069M9.62069 8.75L5.16829 12.3927C4.44092 12.9878 4.86172 14.1667 5.80151 14.1667H6.31034M23.6897 14.1667V22C23.6897 23.6569 22.3465 25 20.6897 25H17.8966M23.6897 14.1667H6.31034M6.31034 14.1667V22C6.31034 23.6569 7.65349 25 9.31034 25H12.1034M12.1034 25V20.3966C12.1034 18.7968 13.4003 17.5 15 17.5V17.5C16.5997 17.5 17.8966 18.7968 17.8966 20.3966V25M12.1034 25H17.8966" stroke="url(#paint0_linear)" stroke-width="1.5"/>
<rect x="15" y="20" width="1.5" height="3" rx="0.75" fill="url(#paint1_linear)"/>
<defs>
<linearGradient id="paint0_linear" x1="27" y1="5" x2="-0.456322" y2="17.2588" gradientUnits="userSpaceOnUse">
<stop stop-color="#F03749"/>
<stop offset="1" stop-color="#260232"/>
</linearGradient>
<linearGradient id="paint1_linear" x1="16.5" y1="20" x2="14.5107" y2="20.3701" gradientUnits="userSpaceOnUse">
<stop stop-color="#F03749"/>
<stop offset="1" stop-color="#260232"/>
</linearGradient>
</defs>
</svg>
