<svg width="30" height="24" viewBox="0 0 30 24" fill="none" xmlns="http://www.w3.org/2000/svg">
  <path d="M22.6843 10.5448C24.8831 10.5448 26.6667 8.76238 26.6667 6.56365C26.6667 4.36493 24.8831 2.58255 22.6843 2.58255" stroke="#0B0A0A" stroke-width="1.5" stroke-linecap="round" stroke-linejoin="round"/>
  <path d="M24.5151 14.8711C25.1717 14.9164 25.8246 15.0095 26.4673 15.1541C27.3604 15.329 28.4346 15.695 28.817 16.4963C29.061 17.0095 29.061 17.607 28.817 18.1214C28.4359 18.9227 27.3604 19.2874 26.4673 19.4711" stroke="#0B0A0A" stroke-width="1.5" stroke-linecap="round" stroke-linejoin="round"/>
  <path d="M7.17175 10.5448C4.97303 10.5448 3.18939 8.76238 3.18939 6.56365C3.18939 4.36493 4.97303 2.58255 7.17175 2.58255" stroke="#0B0A0A" stroke-width="1.5" stroke-linecap="round" stroke-linejoin="round"/>
  <path d="M5.34094 14.8711C4.68435 14.9164 4.03152 15.0095 3.38876 15.1541C2.49568 15.329 1.42147 15.695 1.04035 16.4963C0.795064 17.0095 0.795064 17.607 1.04035 18.1214C1.42022 18.9227 2.49568 19.2874 3.38876 19.4711" stroke="#0B0A0A" stroke-width="1.5" stroke-linecap="round" stroke-linejoin="round"/>
  <path fill-rule="evenodd" clip-rule="evenodd" d="M14.9216 15.7285C19.3769 15.7285 23.1832 16.4027 23.1832 19.1008C23.1832 21.7976 19.4021 22.497 14.9216 22.497C10.465 22.497 6.66003 21.8228 6.66003 19.1247C6.66003 16.4266 10.4411 15.7285 14.9216 15.7285Z" stroke="#0B0A0A" stroke-width="1.5" stroke-linecap="round" stroke-linejoin="round"/>
  <path fill-rule="evenodd" clip-rule="evenodd" d="M14.9216 11.8799C11.9833 11.8799 9.62732 9.52398 9.62732 6.58437C9.62732 3.64603 11.9833 1.29007 14.9216 1.29007C17.86 1.29007 20.2159 3.64603 20.2159 6.58437C20.2159 9.52398 17.86 11.8799 14.9216 11.8799Z" stroke="#0B0A0A" stroke-width="1.5" stroke-linecap="round" stroke-linejoin="round"/>
</svg>
