<svg width="22" height="22" viewBox="0 0 22 22" fill="none" xmlns="http://www.w3.org/2000/svg">
  <path d="M16.5917 15.1722L21.206 19.7865C21.598 20.1785 21.598 20.814 21.206 21.206C20.814 21.598 20.1785 21.598 19.7865 21.206L15.1722 16.5917C13.6268 17.8279 11.6665 18.5671 9.53355 18.5671C4.54446 18.5671 0.5 14.5226 0.5 9.53355C0.5 4.54446 4.54446 0.5 9.53355 0.5C14.5226 0.5 18.5671 4.54446 18.5671 9.53355C18.5671 11.6665 17.8279 13.6268 16.5917 15.1722ZM9.53355 16.5596C13.4139 16.5596 16.5596 13.4139 16.5596 9.53355C16.5596 5.65314 13.4139 2.50745 9.53355 2.50745C5.65314 2.50745 2.50745 5.65314 2.50745 9.53355C2.50745 13.4139 5.65314 16.5596 9.53355 16.5596Z" fill="white"/>
</svg>
